<svg xmlns="http://www.w3.org/2000/svg" viewBox="0 0 342 235"><path d="M316.8 21c-83.5-43.1-141.5-6.2-145.6-3.5-4.1-2.7-62-39.6-145.6 3.5L0 235l23-3.3s8.7-1.7 21.3-7.3c12.6-5.6 83.1-34.8 126.7 10.2v.5l.2-.2.2.2v-.5c43.6-45 114-15.8 126.7-10.2 12.7 5.7 21.3 7.3 21.3 7.3l23 3.3-25.6-214zM171.2 205.3c-3.8-3-54.4-41.1-144.7 1.7L47 36s74-34.3 124 10.1v.4c.1-.1.2-.1.2-.2.1.1.2.1.2.2v-.4c50-44.4 124-10.1 124-10.1L316 207c-90.4-42.8-141-4.7-144.8-1.7z"/><path d="M171.5 57C126 6 52.3 40.3 52.3 40.3L34.5 198c79.5-39 137 0 137 0 26.5-18.5 69-18 69-18l-9-151c-45 2.1-60 28-60 28z"/></svg>