<svg xmlns="http://www.w3.org/2000/svg" viewBox="0 0 342 258"><path d="M316.8 21c-83.5-43.1-141.5-6.2-145.6-3.5-4.1-2.7-62-39.6-145.6 3.5L0 235l23-3.3s8.7-1.7 21.3-7.3c12.6-5.6 83.1-34.8 126.7 10.2v.5l.2-.2.2.2v-.5c8.5-8.8 18.1-14.7 28-18.6-.1-1.6-.2-3.2-.2-4.9 0-7.2 1.4-14 4-20.3-19.5 5-30.3 13.2-32 14.6-3.8-3-54.4-41.1-144.7 1.7L47 36s74-34.3 124 10.1v.4c.1-.1.2-.1.2-.2.1.1.2.1.2.2v-.4c50-44.4 124-10.1 124-10.1L316 207c-3.7-1.8-7.4-3.4-11-4.9.5 2.9.8 5.9.8 8.9 0 5.4-.8 10.6-2.3 15.6 9.7 3.9 16 5.1 16 5.1l23 3.3-25.7-214z"/><path d="M239.3 160l-7.8-131c-45 2-60 28-60 28C126 6 52.3 40.3 52.3 40.3L34.5 198c79.5-39 137 0 137 0 10.7-7.5 24-11.8 36-14.4 7-11.5 18.4-20.1 31.8-23.6z"/><path d="M252.5 164.1c-25.9 0-46.9 21-46.9 46.9s21 46.9 46.9 46.9 46.9-21 46.9-46.9-21-46.9-46.9-46.9zm12.5 48.6h-9.7v9.6h-3.4v-9.6h-9.5v-3.4h9.5v-9.6h3.4v9.6h9.7v3.4z"/></svg>