<svg xmlns="http://www.w3.org/2000/svg" viewBox="0 0 242 241"><path d="M196-.7H63.7v59.3H55V-.7h-7.3v59.3h-9.3V0c-2.7.5-5.3 1.2-7.8 2.1v56.6H21V6.8C8.6 15 .3 29.1.3 45v33h78c11-10.7 26.1-17.3 42.7-17.3s31.7 6.6 42.7 17.3h78V45c0-25.1-20.6-45.7-45.7-45.7zm24 52.9c0 5-4.1 9.2-9.2 9.2h-23c-5 0-9.2-4.1-9.2-9.2v-23c0-5 4.1-9.2 9.2-9.2h23c5 0 9.2 4.1 9.2 9.2v23zM182.3 121c0 33.9-27.5 61.3-61.3 61.3S59.7 154.9 59.7 121c0-13.5 4.3-25.9 11.7-36H.4v110c0 25.1 20.6 45.7 45.7 45.7h150c25.1 0 45.7-20.6 45.7-45.7V85h-71c7.2 10.1 11.5 22.5 11.5 36z"/><path d="M121 168c26 0 47-21 47-47s-21-47-47-47-47 21-47 47 21 47 47 47zm1-79.7c18.1 0 32.7 14.7 32.7 32.7S140 153.7 122 153.7 89.3 139.1 89.3 121s14.6-32.7 32.7-32.7z"/></svg>