<svg style="display: none;" xmlns="http://www.w3.org/2000/svg"><symbol viewBox="0 0 512 512" id="arrow-left"><title>arrow-left</title><path d="M111.8 267.8l239.1 239.1c3.4 3.4 7.4 5.1 11.8 5.1s8.4-1.7 11.8-5.1l25.6-25.7c3.4-3.4 5.1-7.3 5.1-11.8s-1.7-8.4-5.1-11.8L198.5 256 400.2 54.4c3.4-3.4 5.1-7.4 5.1-11.8 0-4.5-1.7-8.4-5.1-11.8L374.5 5.1c-3.4-3.4-7.4-5.1-11.8-5.1s-8.4 1.7-11.8 5.1L111.8 244.2c-3.4 3.4-5.1 7.4-5.1 11.8s1.7 8.4 5.1 11.8z"/></symbol><symbol viewBox="0 0 284.935 284.936" id="arrow-right"><title>arrow-right</title><path d="M222.701 135.9L89.652 2.857C87.748.955 85.557 0 83.084 0c-2.474 0-4.664.955-6.567 2.857L62.244 17.133c-1.906 1.903-2.855 4.089-2.855 6.567 0 2.478.949 4.664 2.855 6.567l112.204 112.204L62.244 254.677c-1.906 1.903-2.855 4.093-2.855 6.564 0 2.477.949 4.667 2.855 6.57l14.274 14.271c1.903 1.905 4.093 2.854 6.567 2.854 2.473 0 4.663-.951 6.567-2.854l133.042-133.044c1.902-1.902 2.854-4.093 2.854-6.567s-.945-4.664-2.847-6.571z"/></symbol><symbol viewBox="0 0 26 26" id="checked"><title>checked</title><path d="M.3 14c-.2-.2-.3-.5-.3-.7s.1-.5.3-.7l1.4-1.4c.4-.4 1-.4 1.4 0l.1.1 5.5 5.9c.2.2.5.2.7 0L22.8 3.3h.1c.4-.4 1-.4 1.4 0l1.4 1.4c.4.4.4 1 0 1.4l-16 16.6c-.2.2-.4.3-.7.3-.3 0-.5-.1-.7-.3L.5 14.3.3 14z"/></symbol><symbol viewBox="0 0 512 512" id="email"><title>email</title><path d="M30 92c-8 0-13 .667-15 2s-2.333 2.833-1 4.5 4.667 4.5 10 8.5c2.667 2 4.667 3.667 6 5l226 172 226-171 5-5c5.333-4 8.833-6.833 10.5-8.5s1.5-3.333-.5-5-7-2.5-15-2.5H30z"/><path d="M0 132v254c0 7.333 3 14.833 9 22.5S21 420 27 420h458c6 0 12-3.833 18-11.5s9-15.167 9-22.5V132L256 328 0 132z"/></symbol><symbol viewBox="0 0 455 455" id="fb"><title>fb</title><path d="M0 0v455h455V0H0zm301.004 125.217H265.44c-7.044 0-14.153 7.28-14.153 12.696v36.264h49.647c-1.999 27.807-6.103 53.235-6.103 53.235h-43.798V385h-65.266V227.395h-31.771v-53.029h31.771V131.01c0-7.928-1.606-61.009 66.872-61.009h48.366v55.216z"/></symbol><symbol viewBox="0 0 578.954 578.954" id="inst"><title>inst</title><path d="M549.576 59.364c0-9.384-3.264-17.442-9.791-24.174-6.525-6.732-14.482-10.098-23.865-10.098h-55.08c-9.387 0-17.344 3.366-23.869 10.098-6.527 6.732-9.791 14.79-9.791 24.174v46.512c0 9.384 3.264 17.34 9.791 23.868 6.525 6.528 14.482 9.792 23.869 9.792h55.08c9.383 0 17.34-3.264 23.865-9.792 6.527-6.528 9.791-14.484 9.791-23.868V59.364zM153.001 25.092h-19.584v114.444h19.584V25.092zm-33.66 0H99.145v114.444h20.196V25.092zm-34.272 0H65.485v114.444h19.584V25.092zm-34.272 3.06c-5.712 2.448-10.506 6.528-14.382 12.24s-5.814 12.036-5.814 18.972v80.172h20.196V28.152zM561.816 0c4.08 0 7.549 1.326 10.404 3.978 2.854 2.652 4.285 6.018 4.285 10.098V165.24H398.412c-13.055-17.136-29.375-30.702-48.959-40.698s-41.004-14.994-64.26-14.994-44.676 4.998-64.26 14.994-35.904 23.562-48.96 40.698H2.449V14.076c0-4.08 1.428-7.446 4.284-10.098S13.057 0 17.137 0h544.679zM285.193 151.776c-13.872 0-26.826 2.652-38.862 7.956-12.036 5.304-22.644 12.546-31.824 21.726-9.18 9.18-16.422 19.788-21.726 31.824s-7.956 24.99-7.956 38.862 2.652 26.928 7.956 39.168 12.546 22.848 21.726 31.824c9.18 8.975 19.788 16.115 31.824 21.42 12.036 5.303 24.99 7.955 38.862 7.955s26.928-2.652 39.168-7.955c12.24-5.305 22.85-12.445 31.824-21.42 8.975-8.979 16.115-19.584 21.42-31.824 5.303-12.24 7.955-25.296 7.955-39.168s-2.652-26.826-7.955-38.862c-5.305-12.036-12.445-22.644-21.42-31.824-8.977-9.18-19.584-16.422-31.824-21.726-12.24-5.304-25.297-7.956-39.168-7.956zm0 226.441c-17.544 0-33.966-3.268-49.266-9.793-15.3-6.527-28.662-15.504-40.086-26.93-11.424-11.424-20.4-24.783-26.928-40.086-6.528-15.3-9.792-31.722-9.792-49.266s3.264-33.966 9.792-49.266c6.528-15.3 15.504-28.662 26.928-40.086s24.786-20.4 40.086-26.928 31.722-9.792 49.266-9.792c17.543 0 33.965 3.264 49.268 9.792 15.301 6.528 28.66 15.504 40.086 26.928 11.424 11.424 20.398 24.786 26.928 40.086 6.529 15.3 9.793 31.722 9.793 49.266s-3.264 33.966-9.793 49.266c-6.527 15.303-15.504 28.662-26.928 40.086-11.426 11.426-24.785 20.4-40.086 26.93-15.303 6.527-31.725 9.793-49.268 9.793zM428.4 252.144c0-22.848-5.1-44.064-15.299-63.648h163.404v376.381c0 4.08-1.432 7.443-4.285 10.098-2.855 2.652-6.324 3.979-10.404 3.979H17.137c-4.08 0-7.548-1.324-10.404-3.979s-4.284-6.018-4.284-10.098V188.496h154.836c-4.488 9.384-8.058 19.482-10.71 30.294-2.652 10.812-3.978 21.93-3.978 33.354 0 19.584 3.774 38.148 11.322 55.692 7.548 17.545 17.748 32.74 30.6 45.594 12.852 12.852 27.948 23.053 45.288 30.6 17.34 7.549 35.802 11.322 55.386 11.322 19.584 0 38.149-3.773 55.692-11.322 17.545-7.547 32.742-17.748 45.594-30.6 12.852-12.854 23.053-28.049 30.6-45.594 7.548-17.544 11.321-36.108 11.321-55.692z"/></symbol><symbol viewBox="0 0 438.536 438.536" id="phone"><title>phone</title><path d="M414.41 24.123C398.333 8.042 378.963 0 356.315 0H82.228C59.58 0 40.21 8.042 24.126 24.123 8.045 40.207.003 59.576.003 82.225v274.084c0 22.647 8.042 42.018 24.123 58.102 16.084 16.084 35.454 24.126 58.102 24.126h274.084c22.648 0 42.018-8.042 58.095-24.126 16.084-16.084 24.126-35.454 24.126-58.102V82.225c-.001-22.649-8.043-42.021-24.123-58.102zm-55.251 308.751c-3.997 8.754-12.99 16.371-26.977 22.846-13.99 6.475-26.413 9.712-37.265 9.712-3.046 0-6.283-.235-9.708-.711-3.426-.479-6.324-.952-8.703-1.428-2.378-.476-5.523-1.331-9.421-2.57-3.905-1.234-6.715-2.189-8.422-2.854-1.718-.664-4.856-1.854-9.421-3.566-4.569-1.718-7.427-2.765-8.562-3.138-31.215-11.427-61.721-32.028-91.507-61.814-29.786-29.793-50.391-60.292-61.812-91.502-.378-1.143-1.425-3.999-3.14-8.565a952.564 952.564 0 0 0-3.571-9.419c-.662-1.713-1.615-4.521-2.853-8.42-1.237-3.903-2.091-7.041-2.568-9.423-.478-2.376-.95-5.277-1.427-8.704-.476-3.427-.713-6.667-.713-9.71 0-10.85 3.237-23.269 9.71-37.259 6.472-13.988 14.084-22.981 22.841-26.979 10.088-4.189 19.7-6.283 28.837-6.283 2.091 0 3.616.192 4.565.572.953.385 2.524 2.094 4.714 5.14 2.19 3.046 4.568 6.899 7.137 11.563 2.57 4.665 5.092 9.186 7.566 13.562a601.267 601.267 0 0 1 7.139 12.991c2.284 4.279 3.711 6.995 4.281 8.133.571.957 1.809 2.762 3.711 5.429 1.902 2.663 3.333 5.039 4.283 7.135.95 2.094 1.427 4.093 1.427 5.996 0 2.859-1.953 6.331-5.854 10.42-3.903 4.093-8.186 7.854-12.85 11.281s-8.945 7.092-12.847 10.994c-3.899 3.899-5.852 7.087-5.852 9.562 0 1.333.333 2.902 1 4.71.666 1.812 1.285 3.287 1.856 4.427.571 1.141 1.477 2.76 2.712 4.856 1.237 2.096 2.048 3.427 2.426 3.999 10.467 18.843 22.508 35.07 36.114 48.681 13.612 13.613 29.836 25.648 48.682 36.117.567.384 1.902 1.191 4.004 2.43 2.091 1.232 3.713 2.136 4.853 2.707 1.143.571 2.614 1.191 4.425 1.852 1.811.664 3.381.999 4.719.999 3.036 0 7.225-3.138 12.56-9.418a976.681 976.681 0 0 1 16.276-18.705c5.516-6.181 9.985-9.274 13.418-9.274 1.902 0 3.897.473 5.999 1.424 2.095.951 4.469 2.382 7.132 4.284 2.669 1.91 4.476 3.142 5.428 3.721l15.125 8.271c10.089 5.332 18.511 10.041 25.27 14.134s10.424 6.899 10.996 8.419c.379.951.564 2.478.564 4.572-.007 9.128-2.102 18.741-6.297 28.803z"/></symbol><symbol viewBox="0 0 491.918 491.918" id="shelf"><title>shelf</title><path d="M49.426 0v491.906h34.483V385.412h326.404v106.506h32.179V0H49.426zm360.887 367.018h-96.546V294.61h-26.434v72.413H276.99V294.61h-26.433v72.413h-9.194V294.61H214.93v72.413h-10.926V294.61h-26.43v72.413H167.23V294.61h-26.433v72.413h-9.2V294.61h-26.433v72.413H83.909V262.042h326.404v104.976zm0-123.358H391.67l5.532-1.259-16.964-74.721-25.771 5.854 15.912 70.125h-15.912v-74.005h-26.433v74.006h-123.45v-74.334h-26.433v74.328H167.81v-74.328h-26.43v74.328h-9.2v-74.328h-26.433v74.328H83.915v-98.071h326.404v98.078h-.006zm0-116.472h-10.911V50.566h-26.444v76.622h-10.345V50.566H336.18v76.622h-9.197V50.566h-26.427v76.622h-131.21l17.07-3.88-16.966-74.724-25.777 5.863 16.518 72.747h-16.518V50.566H117.24v76.622H83.915V18.386h326.404v108.802h-.006z"/></symbol><symbol viewBox="0 0 242.667 242.667" id="vk"><title>vk</title><path d="M0 0v242.667h242.667V0H0zm177.006 135.224l21.075 24.216c2.694 3.096.495 7.925-3.609 7.925h-23.783a14.878 14.878 0 0 1-10.13-3.982l-7.043-6.549c-7.948-6.954-11.326-9.339-14.505-9.339-3.179 0-3.974 2.384-3.974 8.544 0 6.159-1.192 11.326-19.472 11.326s-32.586-13.71-48.68-34.97c-16.094-21.26-23.247-44.11-23.247-44.11-.888-2.86 1.25-5.762 4.245-5.762h19.032a9.283 9.283 0 0 1 8.435 5.378c1.558 3.373 4.238 8.578 8.822 16.279 6.505 10.928 12.754 15.851 16.294 17.947 1.318.781 2.98-.184 2.98-1.716V94.199c0-3.43-1.239-6.744-3.49-9.332l-2.683-3.085c-.694-.798-.127-2.041.93-2.041h30.079a8.345 8.345 0 0 1 8.345 8.345v30.483c0 1.964 2.549 2.732 3.634 1.096l21.649-32.627a9.213 9.213 0 0 1 7.675-4.119h25.413c3.473 0 5.585 3.825 3.736 6.765l-22.487 35.741a8.242 8.242 0 0 0 .759 9.799z"/></symbol></svg>