<svg style="display: none;" xmlns="http://www.w3.org/2000/svg"><symbol viewBox="0 0 500 500" id="icon-add-book"><title>icon-add-book</title><path d="M308.017 316.378c-9.497-3.104-17.161-9.413-21.122-17.387-5.176-10.42-5.23-19.585-.173-29.856 9.921-20.152 35.447-25.213 52.343-10.378 6.425 5.641 11.645 16.852 11.645 25.012 0 8.159-5.22 19.37-11.645 25.011-8.366 7.346-21.778 10.628-31.048 7.598zm10.714-26.61v-4h4c3.334 0 4-.333 4-2 0-1.666-.666-2-4-2h-4v-4c0-3.333-.333-4-2-4-1.666 0-2 .667-2 4v4h-4c-3.333 0-4 .334-4 2 0 1.667.667 2 4 2h4v4c0 3.334.334 4 2 4 1.667 0 2-.666 2-4zm-171.974 7.366c.014-.476 4.005-33.397 8.868-73.158 7.765-63.496 9.07-72.464 10.724-73.696 3.352-2.498 16.64-7.682 26.382-10.292 8.262-2.213 11.651-2.557 26-2.632 19.159-.101 26.283 1.275 38.581 7.453l7.646 3.841 3.668-2.315c18.295-11.549 52.866-12.652 79.877-2.55 6.25 2.337 14.898 6.63 15.545 7.715.847 1.419 18.055 145.23 17.45 145.835-.876.877-15.053-1.445-20.85-3.416l-5.002-1.7-.208-8.583-.207-8.582 4.25 1.822c2.338 1.002 4.25 1.373 4.25.824 0-1.762-14.027-116.293-14.268-116.498-1.375-1.174-16.542-5.71-23.42-7.005-11.702-2.204-31.308-1.535-39.36 1.342-7.52 2.688-12.594 5.372-17.949 9.496l-4.497 3.463-4.038-3.309c-5.625-4.61-15.128-9.134-23.167-11.029-18.16-4.281-58.23 2.466-58.333 9.823-.017 1.257-3.122 27.486-6.9 58.286-3.776 30.8-6.8 56.06-6.717 56.133.082.074 5.255-1.868 11.495-4.315 17.376-6.813 26.943-8.703 44.154-8.72 16.697-.018 22.74 1.247 35.706 7.475l8.206 3.941 5.794-2.94c5.58-2.832 11.306-5.268 11.284-4.8-.006.124-.681 2.435-1.5 5.135-.82 2.7-1.499 6.75-1.51 9-.018 3.842-.325 4.272-5.045 7.075-2.765 1.641-5.968 3.987-7.12 5.212l-2.093 2.229-4.481-3.945c-10.708-9.425-24.755-13.561-43.13-12.698-13.338.626-23.612 3.021-37.886 8.831-5.349 2.177-12.2 4.585-15.225 5.352-7.47 1.892-17.005 2.96-16.974 1.9zm109.69-28.667c-20.569-10.232-47.602-10.127-77.068.298-4.869 1.723-9.01 2.975-9.202 2.783-.192-.192 2.545-24.184 6.083-53.314 3.538-29.131 6.441-53.266 6.452-53.634.03-1.043 11.727-4.68 20.372-6.334 9.252-1.77 24.411-1.95 31.848-.376 7.63 1.614 17.424 6.291 24.015 11.468l5.716 4.49 5.778-4.707c6.536-5.323 13.055-8.568 21.75-10.825 5.048-1.31 13.534-2.123 13.543-1.297.001.137 1.121 18.25 2.488 40.25 3.222 51.86 3.245 49.102-.417 49.835-5.861 1.172-12.696 5.184-18.079 10.613-3.777 3.81-7.386 6.306-11.5 7.957-3.297 1.322-7.795 3.363-9.995 4.535l-4 2.13z" fill="#797979"/></symbol><symbol viewBox="0 0 512 512" id="icon-arrow-left"><title>icon-arrow-left</title><style>.st0{fill:#fff}</style><path class="st0" d="M111.8 267.8l239.1 239.1c3.4 3.4 7.4 5.1 11.8 5.1s8.4-1.7 11.8-5.1l25.6-25.7c3.4-3.4 5.1-7.3 5.1-11.8s-1.7-8.4-5.1-11.8L198.5 256 400.2 54.4c3.4-3.4 5.1-7.4 5.1-11.8 0-4.5-1.7-8.4-5.1-11.8L374.5 5.1c-3.4-3.4-7.4-5.1-11.8-5.1s-8.4 1.7-11.8 5.1L111.8 244.2c-3.4 3.4-5.1 7.4-5.1 11.8s1.7 8.4 5.1 11.8z"/></symbol><symbol viewBox="0 0 284.935 284.936" id="icon-arrow-right"><title>icon-arrow-right</title><path d="M222.701 135.9L89.652 2.857C87.748.955 85.557 0 83.084 0c-2.474 0-4.664.955-6.567 2.857L62.244 17.133c-1.906 1.903-2.855 4.089-2.855 6.567 0 2.478.949 4.664 2.855 6.567l112.204 112.204L62.244 254.677c-1.906 1.903-2.855 4.093-2.855 6.564 0 2.477.949 4.667 2.855 6.57l14.274 14.271c1.903 1.905 4.093 2.854 6.567 2.854 2.473 0 4.663-.951 6.567-2.854l133.042-133.044c1.902-1.902 2.854-4.093 2.854-6.567s-.945-4.664-2.847-6.571z" fill="#FFF"/></symbol><symbol viewBox="0 0 286 442" id="icon-book"><title>icon-book</title><path d="M8.995 226.118V17.728l5.75-7.107 5.75-7.106 128.3-.003 128.3-.004-.3 5.75-.3 5.75-125.202.254-125.202.254-2.574 3.375c-2.547 3.34-2.571 3.54-2.298 19.246l.276 15.871 132 .5 132 .5.252 189.75.253 189.75H8.995zm65.798 18.435c.269-6.731 1.29-10.045 3.094-10.045.356 0 2.627 3.263 5.047 7.25 6.288 10.363 6.71 10.75 11.716 10.75 2.39 0 4.345-.418 4.345-.93 0-.51-3.183-5.87-7.073-11.907l-7.073-10.978 7.073-8.955c3.89-4.925 7.073-9.241 7.073-9.592 0-.35-2.016-.638-4.479-.638-4.44 0-4.542.08-11.685 9-3.963 4.95-7.46 9.001-7.771 9.002-.31 0-.565-3.937-.565-8.75v-8.752l-4.211-.305-4.211-.306-.29 21.141c-.158 11.628-.08 21.349.176 21.603.255.254 2.28.328 4.5.165l4.036-.298zm45.202-13.602v-21.558l-4.25.308-4.25.307-.27 21.25-.27 21.25h9.04zm33.226 4.307l.274-17.25 5.807-.301 5.807-.302-.307-3.698-.307-3.699h-32v7l5.75.3 5.75.3v16.784c0 9.23.3 17.083.667 17.45.366.366 2.38.666 4.476.666h3.81zm48.774 13.293v-3.958l-7.75-.292-7.75-.293v-9l7.308-.294 7.307-.295-.307-3.705-.308-3.706-7.305-.294-7.306-.295.306-4.205.305-4.206 7.808-.293 7.807-.293-.307-3.707-.308-3.707h-24l-.272 19.972c-.15 10.985-.051 20.547.219 21.25.36.94 3.677 1.278 12.521 1.278h12.032zm23.206-3.293l.294-7.25 5.036-.614c7.126-.87 8.745-1.526 11.902-4.821 5.559-5.802 4.135-17.104-2.61-20.713-2.538-1.358-5.702-1.79-13.328-1.816l-10-.035-.272 19.971c-.15 10.985-.051 20.547.219 21.25.284.742 2.163 1.279 4.478 1.279h3.987l.294-7.25zm.2-17.135c-.293-.762-.391-3.35-.22-5.75.305-4.243.416-4.373 4.007-4.671 6.545-.545 10.12 5.493 5.807 9.806-2.347 2.347-8.772 2.759-9.595.615zm19.594-95.62V97.498l-89.75.255-89.75.255-.264 33.493c-.145 18.421-.047 34.059.219 34.75.382.997 19.04 1.257 90.013 1.257h89.532z" fill="#010101"/></symbol><symbol viewBox="0 0 26 26" id="icon-checked"><title>icon-checked</title><path d="M.3 14c-.2-.2-.3-.5-.3-.7s.1-.5.3-.7l1.4-1.4c.4-.4 1-.4 1.4 0l.1.1 5.5 5.9c.2.2.5.2.7 0L22.8 3.3h.1c.4-.4 1-.4 1.4 0l1.4 1.4c.4.4.4 1 0 1.4l-16 16.6c-.2.2-.4.3-.7.3-.3 0-.5-.1-.7-.3L.5 14.3.3 14z"/></symbol><symbol viewBox="0 0 512 512" id="icon-envelope"><title>icon-envelope</title><g fill="#FFF"><path d="M30 92c-8 0-13 .667-15 2s-2.333 2.833-1 4.5 4.667 4.5 10 8.5c2.667 2 4.667 3.667 6 5l226 172 226-171 5-5c5.333-4 8.833-6.833 10.5-8.5s1.5-3.333-.5-5-7-2.5-15-2.5H30z"/><path d="M0 132v254c0 7.333 3 14.833 9 22.5S21 420 27 420h458c6 0 12-3.833 18-11.5s9-15.167 9-22.5V132L256 328 0 132z"/></g></symbol><symbol viewBox="0 0 455 455" id="icon-facebook"><title>icon-facebook</title><path d="M0 0v455h455V0H0zm301.004 125.217H265.44c-7.044 0-14.153 7.28-14.153 12.696v36.264h49.647c-1.999 27.807-6.103 53.235-6.103 53.235h-43.798V385h-65.266V227.395h-31.771v-53.029h31.771V131.01c0-7.928-1.606-61.009 66.872-61.009h48.366v55.216z" fill="#FFF" fill-rule="evenodd" clip-rule="evenodd"/></symbol><symbol viewBox="0 0 578.954 578.954" id="icon-instagramm"><title>icon-instagramm</title><path d="M549.576 59.364c0-9.384-3.264-17.442-9.791-24.174-6.525-6.732-14.482-10.098-23.865-10.098h-55.08c-9.387 0-17.344 3.366-23.869 10.098-6.527 6.732-9.791 14.79-9.791 24.174v46.512c0 9.384 3.264 17.34 9.791 23.868 6.525 6.528 14.482 9.792 23.869 9.792h55.08c9.383 0 17.34-3.264 23.865-9.792 6.527-6.528 9.791-14.484 9.791-23.868V59.364zM153.001 25.092h-19.584v114.444h19.584V25.092zm-33.66 0H99.145v114.444h20.196V25.092zm-34.272 0H65.485v114.444h19.584V25.092zm-34.272 3.06c-5.712 2.448-10.506 6.528-14.382 12.24s-5.814 12.036-5.814 18.972v80.172h20.196V28.152zM561.816 0c4.08 0 7.549 1.326 10.404 3.978 2.854 2.652 4.285 6.018 4.285 10.098V165.24H398.412c-13.055-17.136-29.375-30.702-48.959-40.698s-41.004-14.994-64.26-14.994-44.676 4.998-64.26 14.994-35.904 23.562-48.96 40.698H2.449V14.076c0-4.08 1.428-7.446 4.284-10.098S13.057 0 17.137 0h544.679zM285.193 151.776c-13.872 0-26.826 2.652-38.862 7.956-12.036 5.304-22.644 12.546-31.824 21.726-9.18 9.18-16.422 19.788-21.726 31.824s-7.956 24.99-7.956 38.862 2.652 26.928 7.956 39.168 12.546 22.848 21.726 31.824c9.18 8.975 19.788 16.115 31.824 21.42 12.036 5.303 24.99 7.955 38.862 7.955s26.928-2.652 39.168-7.955c12.24-5.305 22.85-12.445 31.824-21.42 8.975-8.979 16.115-19.584 21.42-31.824 5.303-12.24 7.955-25.296 7.955-39.168s-2.652-26.826-7.955-38.862c-5.305-12.036-12.445-22.644-21.42-31.824-8.977-9.18-19.584-16.422-31.824-21.726-12.24-5.304-25.297-7.956-39.168-7.956zm0 226.441c-17.544 0-33.966-3.268-49.266-9.793-15.3-6.527-28.662-15.504-40.086-26.93-11.424-11.424-20.4-24.783-26.928-40.086-6.528-15.3-9.792-31.722-9.792-49.266s3.264-33.966 9.792-49.266c6.528-15.3 15.504-28.662 26.928-40.086s24.786-20.4 40.086-26.928 31.722-9.792 49.266-9.792c17.543 0 33.965 3.264 49.268 9.792 15.301 6.528 28.66 15.504 40.086 26.928 11.424 11.424 20.398 24.786 26.928 40.086 6.529 15.3 9.793 31.722 9.793 49.266s-3.264 33.966-9.793 49.266c-6.527 15.303-15.504 28.662-26.928 40.086-11.426 11.426-24.785 20.4-40.086 26.93-15.303 6.527-31.725 9.793-49.268 9.793zM428.4 252.144c0-22.848-5.1-44.064-15.299-63.648h163.404v376.381c0 4.08-1.432 7.443-4.285 10.098-2.855 2.652-6.324 3.979-10.404 3.979H17.137c-4.08 0-7.548-1.324-10.404-3.979s-4.284-6.018-4.284-10.098V188.496h154.836c-4.488 9.384-8.058 19.482-10.71 30.294-2.652 10.812-3.978 21.93-3.978 33.354 0 19.584 3.774 38.148 11.322 55.692 7.548 17.545 17.748 32.74 30.6 45.594 12.852 12.852 27.948 23.053 45.288 30.6 17.34 7.549 35.802 11.322 55.386 11.322 19.584 0 38.149-3.773 55.692-11.322 17.545-7.547 32.742-17.748 45.594-30.6 12.852-12.854 23.053-28.049 30.6-45.594 7.548-17.544 11.321-36.108 11.321-55.692z" fill="#FFF"/></symbol><symbol viewBox="0 0 438.536 438.536" id="icon-phone"><title>icon-phone</title><path d="M414.41 24.123C398.333 8.042 378.963 0 356.315 0H82.228C59.58 0 40.21 8.042 24.126 24.123 8.045 40.207.003 59.576.003 82.225v274.084c0 22.647 8.042 42.018 24.123 58.102 16.084 16.084 35.454 24.126 58.102 24.126h274.084c22.648 0 42.018-8.042 58.095-24.126 16.084-16.084 24.126-35.454 24.126-58.102V82.225c-.001-22.649-8.043-42.021-24.123-58.102zm-55.251 308.751c-3.997 8.754-12.99 16.371-26.977 22.846-13.99 6.475-26.413 9.712-37.265 9.712-3.046 0-6.283-.235-9.708-.711-3.426-.479-6.324-.952-8.703-1.428-2.378-.476-5.523-1.331-9.421-2.57-3.905-1.234-6.715-2.189-8.422-2.854-1.718-.664-4.856-1.854-9.421-3.566-4.569-1.718-7.427-2.765-8.562-3.138-31.215-11.427-61.721-32.028-91.507-61.814-29.786-29.793-50.391-60.292-61.812-91.502-.378-1.143-1.425-3.999-3.14-8.565a952.564 952.564 0 0 0-3.571-9.419c-.662-1.713-1.615-4.521-2.853-8.42-1.237-3.903-2.091-7.041-2.568-9.423-.478-2.376-.95-5.277-1.427-8.704-.476-3.427-.713-6.667-.713-9.71 0-10.85 3.237-23.269 9.71-37.259 6.472-13.988 14.084-22.981 22.841-26.979 10.088-4.189 19.7-6.283 28.837-6.283 2.091 0 3.616.192 4.565.572.953.385 2.524 2.094 4.714 5.14 2.19 3.046 4.568 6.899 7.137 11.563 2.57 4.665 5.092 9.186 7.566 13.562a601.267 601.267 0 0 1 7.139 12.991c2.284 4.279 3.711 6.995 4.281 8.133.571.957 1.809 2.762 3.711 5.429 1.902 2.663 3.333 5.039 4.283 7.135.95 2.094 1.427 4.093 1.427 5.996 0 2.859-1.953 6.331-5.854 10.42-3.903 4.093-8.186 7.854-12.85 11.281s-8.945 7.092-12.847 10.994c-3.899 3.899-5.852 7.087-5.852 9.562 0 1.333.333 2.902 1 4.71.666 1.812 1.285 3.287 1.856 4.427.571 1.141 1.477 2.76 2.712 4.856 1.237 2.096 2.048 3.427 2.426 3.999 10.467 18.843 22.508 35.07 36.114 48.681 13.612 13.613 29.836 25.648 48.682 36.117.567.384 1.902 1.191 4.004 2.43 2.091 1.232 3.713 2.136 4.853 2.707 1.143.571 2.614 1.191 4.425 1.852 1.811.664 3.381.999 4.719.999 3.036 0 7.225-3.138 12.56-9.418a976.681 976.681 0 0 1 16.276-18.705c5.516-6.181 9.985-9.274 13.418-9.274 1.902 0 3.897.473 5.999 1.424 2.095.951 4.469 2.382 7.132 4.284 2.669 1.91 4.476 3.142 5.428 3.721l15.125 8.271c10.089 5.332 18.511 10.041 25.27 14.134s10.424 6.899 10.996 8.419c.379.951.564 2.478.564 4.572-.007 9.128-2.102 18.741-6.297 28.803z" fill="#FFF"/></symbol><symbol viewBox="0 0 507.451 507.45" id="icon-settings"><title>icon-settings</title><path d="M440.813 280.5c0-7.65 2.55-15.3 2.55-25.5s0-17.85-2.55-25.5l53.55-43.35c5.1-5.1 5.1-10.2 2.55-15.3l-51-89.25c-2.55-2.55-7.649-5.1-15.3-2.55l-63.75 25.5c-12.75-10.2-28.05-17.85-43.35-25.5l-10.2-66.3C315.863 5.1 308.212 0 303.113 0h-102c-5.101 0-12.75 5.1-12.75 10.2l-10.2 68.85c-15.3 5.1-28.05 15.3-43.35 25.5l-61.2-25.5c-7.65-2.55-12.75 0-17.851 5.1l-51 89.25c-2.55 2.55 0 10.2 5.1 15.3l53.55 40.8c0 7.65-2.55 15.3-2.55 25.5s0 17.85 2.55 25.5l-53.55 43.35c-5.1 5.101-5.1 10.2-2.55 15.301l51 89.25c2.55 2.55 7.649 5.1 15.3 2.55l63.75-25.5c12.75 10.2 28.05 17.85 43.35 25.5l10.2 66.3c0 5.1 5.1 10.2 12.75 10.2h102c5.101 0 12.75-5.101 12.75-10.2l10.2-66.3c15.3-7.65 30.6-15.3 43.35-25.5l63.75 25.5c5.101 2.55 12.75 0 15.301-5.101l51-89.25c2.55-5.1 2.55-12.75-2.551-15.3l-58.649-40.8zm-188.7 63.75c-48.45 0-89.25-40.8-89.25-89.25s40.8-89.25 89.25-89.25 89.25 40.8 89.25 89.25-40.8 89.25-89.25 89.25z"/></symbol><symbol viewBox="0 0 491.918 491.918" id="icon-shelf"><title>icon-shelf</title><path d="M49.426 0v491.906h34.483V385.412h326.404v106.506h32.179V0H49.426zm360.887 367.018h-96.546V294.61h-26.434v72.413H276.99V294.61h-26.433v72.413h-9.194V294.61H214.93v72.413h-10.926V294.61h-26.43v72.413H167.23V294.61h-26.433v72.413h-9.2V294.61h-26.433v72.413H83.909V262.042h326.404v104.976zm0-123.358H391.67l5.532-1.259-16.964-74.721-25.771 5.854 15.912 70.125h-15.912v-74.005h-26.433v74.006h-123.45v-74.334h-26.433v74.328H167.81v-74.328h-26.43v74.328h-9.2v-74.328h-26.433v74.328H83.915v-98.071h326.404v98.078h-.006zm0-116.472h-10.911V50.566h-26.444v76.622h-10.345V50.566H336.18v76.622h-9.197V50.566h-26.427v76.622h-131.21l17.07-3.88-16.966-74.724-25.777 5.863 16.518 72.747h-16.518V50.566H117.24v76.622H83.915V18.386h326.404v108.802h-.006z" fill="#FFF"/></symbol><symbol viewBox="0 0 242.667 242.667" id="icon-vk"><title>icon-vk</title><path d="M0 0v242.667h242.667V0H0zm177.006 135.224l21.075 24.216c2.694 3.096.495 7.925-3.609 7.925h-23.783a14.878 14.878 0 0 1-10.13-3.982l-7.043-6.549c-7.948-6.954-11.326-9.339-14.505-9.339-3.179 0-3.974 2.384-3.974 8.544 0 6.159-1.192 11.326-19.472 11.326s-32.586-13.71-48.68-34.97c-16.094-21.26-23.247-44.11-23.247-44.11-.888-2.86 1.25-5.762 4.245-5.762h19.032a9.283 9.283 0 0 1 8.435 5.378c1.558 3.373 4.238 8.578 8.822 16.279 6.505 10.928 12.754 15.851 16.294 17.947 1.318.781 2.98-.184 2.98-1.716V94.199c0-3.43-1.239-6.744-3.49-9.332l-2.683-3.085c-.694-.798-.127-2.041.93-2.041h30.079a8.345 8.345 0 0 1 8.345 8.345v30.483c0 1.964 2.549 2.732 3.634 1.096l21.649-32.627a9.213 9.213 0 0 1 7.675-4.119h25.413c3.473 0 5.585 3.825 3.736 6.765l-22.487 35.741a8.242 8.242 0 0 0 .759 9.799z" fill="#FFF"/></symbol></svg>