<?xml version="1.0" encoding="utf-8"?>
<!-- Generator: Adobe Illustrator 21.0.0, SVG Export Plug-In . SVG Version: 6.00 Build 0)  -->
<svg version="1.1" id="Слой_1" xmlns="http://www.w3.org/2000/svg" xmlns:xlink="http://www.w3.org/1999/xlink" x="0px" y="0px"
	 viewBox="0 0 200 250" style="enable-background:new 0 0 200 250;" xml:space="preserve">
<g>
	<path d="M100.4,200c54.7,0,99-44.3,99-99c0-54.7-44.3-99-99-99s-99,44.3-99,99C1.4,155.7,45.7,200,100.4,200z M24.4,42l40,40l35-35
		l36,35l40-40v77l-0.5,0.5h-4v-67l-35,35l-36-35l-35,35l-36-35v74c0,0,126,0,140,0c8.5,0.5,8.5,20.5,1,21h-52.5
		c0,12.3,0,35.5,0,35.5l-15.5-15.5L87.4,183v-43c0,0,0-1,1-1s28,0,28,0s1,0,1,1c0,0.2,0,1.5,0,3.5c9.8,0,45.3,0,50.5,0
		c4.5-0.5,4.5-12.5-1-13L24.4,131V42z M25.4,145c0-2,1-2,1-2h59c0,0,0,0,0,3c0,2,0,2,0,2s-58,0-59,0S25.4,147,25.4,145z"/>
	<path d="M45.9,243.1c-0.9,1.4-1.9,2.4-3.2,3s-2.7,1-4.6,1h-2.9c-1.6,0-2.6-0.1-3.1-0.2c-0.6-0.2-1-0.6-1.2-1.1s-0.3-1.6-0.3-3.4
		v-21.9c0-1.7,0.1-2.8,0.3-3.2c0.3-0.6,0.6-1,1-1.2c0.6-0.4,1.4-0.5,2.4-0.5h1.5v-0.9H17.6v0.9h1.1c1,0,1.7,0.2,2.3,0.5
		c0.6,0.3,0.9,0.7,1.1,1.2c0.2,0.4,0.3,1.5,0.3,3.3v22.6c0,1.7-0.1,2.8-0.3,3.2c-0.2,0.6-0.6,1-1,1.2c-0.6,0.4-1.4,0.5-2.4,0.5h-1.1
		v0.9h30.6l1.3-12.1h-1C47.6,239.6,46.8,241.7,45.9,243.1z"/>
	<path d="M52.3,215.5h1.1c1,0,1.7,0.2,2.3,0.5c0.6,0.3,0.9,0.7,1.1,1.2c0.2,0.4,0.3,1.5,0.3,3.3v22.6c0,1.7-0.1,2.8-0.3,3.2
		c-0.2,0.6-0.6,1-1,1.2c-0.6,0.4-1.4,0.5-2.4,0.5h-1.1v0.9h18v-0.9h-1.1c-1,0-1.7-0.2-2.3-0.5c-0.6-0.3-0.9-0.7-1.1-1.2
		c-0.2-0.4-0.3-1.5-0.3-3.3v-22.6c0-1.7,0.1-2.8,0.3-3.2c0.3-0.6,0.6-1,1-1.2c0.6-0.4,1.4-0.5,2.4-0.5h1.1v-0.9h-18V215.5z"/>
	<path d="M101.5,233.5c-1.3-1.1-3.6-2-6.9-2.8c3-0.8,5.1-1.8,6.3-3.1c1.2-1.3,1.8-2.8,1.8-4.4c0-1.6-0.5-3.1-1.4-4.5
		c-0.9-1.4-2.2-2.4-3.9-3.1c-1.6-0.7-4.4-1.1-8.4-1.1H72.6v0.9c1.6,0,2.6,0.1,3.2,0.4c0.6,0.3,1,0.7,1.2,1.2s0.3,1.7,0.3,3.5V243
		c0,1.9-0.1,3-0.3,3.5s-0.6,0.9-1.2,1.2c-0.6,0.3-1.6,0.4-3.2,0.4v0.9h17.5c4.9,0,8.6-1,11.1-3.1c2.1-1.7,3.1-3.8,3.1-6.4
		C104.4,237,103.4,235.1,101.5,233.5z M85.4,216.5c2.5,0,4.3,0.2,5.4,0.7s2,1.2,2.6,2.2c0.6,1,0.9,2.2,0.9,3.7S94,226,93.4,227
		s-1.5,1.7-2.6,2.3s-2.9,0.8-5.3,0.8V216.5z M94.5,243.6c-0.6,1.1-1.5,2-2.6,2.6s-2.4,0.9-3.7,0.9c-0.9,0-1.6-0.2-2.1-0.7
		c-0.5-0.5-0.7-1.2-0.7-2.1l0-1.3v-11c2.6,0,4.5,0.2,5.8,0.7c1.3,0.5,2.3,1.4,3.1,2.7c0.7,1.3,1.1,2.7,1.1,4.3
		C95.4,241.2,95.1,242.5,94.5,243.6z"/>
	<path d="M139.5,244.4l-8.3-11.7c2.1-0.5,3.7-1.3,4.9-2.4c1.8-1.7,2.7-3.8,2.7-6.3c0-2.1-0.6-3.9-1.8-5.4s-2.8-2.6-4.7-3.2
		s-5-0.9-9.1-0.9h-16v0.9c1.6,0,2.6,0.1,3.2,0.4c0.6,0.3,1,0.7,1.2,1.2s0.3,1.7,0.3,3.5V243c0,1.9-0.1,3-0.3,3.5s-0.6,0.9-1.2,1.2
		c-0.6,0.3-1.6,0.4-3.2,0.4v0.9h17.6v-0.9c-1.6,0-2.6-0.1-3.2-0.4c-0.6-0.3-1-0.7-1.2-1.2s-0.3-1.7-0.3-3.5v-9.6h2.3l11.1,15.7h10.8
		v-0.9c-0.9-0.1-1.7-0.3-2.4-0.9C141.3,246.8,140.6,245.9,139.5,244.4z M129.5,228.5c-0.7,1.1-1.6,1.9-2.8,2.3s-2.9,0.6-5.3,0.6H120
		v-15.1h2.7c2.7,0,4.7,0.6,5.9,1.9c1.2,1.3,1.8,3.2,1.8,5.8C130.5,225.9,130.2,227.4,129.5,228.5z"/>
	<path d="M163.8,214.1c-5.1-0.2-9.4,1.4-12.8,4.8s-5.2,7.7-5.2,12.8c0,4.6,1.3,8.5,4,11.8c3.4,4.2,8.2,6.3,14.4,6.3
		c6.2,0,11-2.2,14.3-6.6c2.6-3.3,3.8-7.2,3.8-11.5c0-5.1-1.7-9.4-5.1-12.8S169.3,213.9,163.8,214.1z M171.9,241.4
		c-0.8,2.4-2,4.1-3.5,5.2c-1.2,0.8-2.6,1.3-4.4,1.3c-2.6,0-4.6-1-6-2.9c-2.1-2.8-3.1-7.2-3.1-13c0-4.9,0.7-8.7,2-11.4
		c1.6-3.2,4-4.8,7.2-4.8c1.7,0,3.2,0.5,4.5,1.4c1.3,0.9,2.4,2.5,3.2,4.8c0.8,2.3,1.3,5.7,1.3,10.2
		C173.2,235.9,172.8,239,171.9,241.4z"/>
</g>
</svg>
