<?xml version="1.0" encoding="utf-8"?>
<!-- Generator: Adobe Illustrator 17.0.0, SVG Export Plug-In . SVG Version: 6.00 Build 0)  -->
<!DOCTYPE svg PUBLIC "-//W3C//DTD SVG 1.1//EN" "http://www.w3.org/Graphics/SVG/1.1/DTD/svg11.dtd">
<svg version="1.1" id="Слой_1" xmlns="http://www.w3.org/2000/svg" xmlns:xlink="http://www.w3.org/1999/xlink" x="0px" y="0px"
	 width="3430.093px" height="2707.181px" viewBox="0 0 3430.093 2707.181" enable-background="new 0 0 3430.093 2707.181"
	 xml:space="preserve">
<g>
	<g>
		
			<polyline fill="none" stroke="#F4F4FF" stroke-width="2" stroke-linecap="round" stroke-linejoin="round" stroke-miterlimit="10" points="
			840.855,1499.626 1515.02,2659.78 1734.192,2270.574 840.855,1499.626 		"/>
		
			<polyline fill="none" stroke="#F4F4FF" stroke-width="2" stroke-linecap="round" stroke-linejoin="round" stroke-miterlimit="10" points="
			840.855,1499.626 704.657,1732.411 301.297,1499.626 840.855,1499.626 		"/>
		
			<polygon fill="none" stroke="#F4F4FF" stroke-width="2" stroke-linecap="round" stroke-linejoin="round" stroke-miterlimit="10" points="
			840.855,1499.626 1108.636,1037.157 301.297,1499.626 		"/>
		
			<polygon fill="none" stroke="#F4F4FF" stroke-width="2" stroke-linecap="round" stroke-linejoin="round" stroke-miterlimit="10" points="
			1515.02,2659.78 704.657,1732.411 840.855,1499.626 		"/>
		
			<polygon fill="none" stroke="#F4F4FF" stroke-width="2" stroke-linecap="round" stroke-linejoin="round" stroke-miterlimit="10" points="
			1916.515,1966.333 1734.192,2270.574 1917.055,2428.385 		"/>
		
			<polygon fill="none" stroke="#F4F4FF" stroke-width="2" stroke-linecap="round" stroke-linejoin="round" stroke-miterlimit="10" points="
			840.855,1499.626 1916.515,1966.333 1734.192,2270.574 		"/>
		
			<polygon fill="none" stroke="#F4F4FF" stroke-width="2" stroke-linecap="round" stroke-linejoin="round" stroke-miterlimit="10" points="
			1108.636,1037.157 1515.072,1268.392 840.855,1499.626 		"/>
		
			<polygon fill="none" stroke="#F4F4FF" stroke-width="2" stroke-linecap="round" stroke-linejoin="round" stroke-miterlimit="10" points="
			1648.074,1499.626 1515.072,1268.392 840.855,1499.626 		"/>
		
			<polygon fill="none" stroke="#F4F4FF" stroke-width="2" stroke-linecap="round" stroke-linejoin="round" stroke-miterlimit="10" points="
			1916.515,1499.626 1515.072,1268.392 1648.074,1499.626 		"/>
		
			<polygon fill="none" stroke="#F4F4FF" stroke-width="2" stroke-linecap="round" stroke-linejoin="round" stroke-miterlimit="10" points="
			1916.515,1966.333 1648.074,1499.626 1916.515,1499.626 		"/>
		
			<polygon fill="none" stroke="#F4F4FF" stroke-width="2" stroke-linecap="round" stroke-linejoin="round" stroke-miterlimit="10" points="
			840.855,1499.626 1916.515,1966.333 1648.074,1499.626 		"/>
		
			<polygon fill="none" stroke="#F4F4FF" stroke-width="2" stroke-linecap="round" stroke-linejoin="round" stroke-miterlimit="10" points="
			1917.055,2428.385 1515.02,2659.78 1734.192,2270.574 		"/>
	</g>
	<g>
		
			<polygon fill="none" stroke="#F4F4FF" stroke-width="2" stroke-linecap="round" stroke-linejoin="round" stroke-miterlimit="10" points="
			1916.515,1499.626 2117.076,821.226 2967.914,821.226 3392.115,576.414 3392.115,1553.159 2542.495,2042.165 		"/>
		
			<polygon fill="none" stroke="#F4F4FF" stroke-width="2" stroke-linecap="round" stroke-linejoin="round" stroke-miterlimit="10" points="
			1916.515,1499.626 2826.897,1499.626 2117.076,821.226 		"/>
		
			<polygon fill="none" stroke="#F4F4FF" stroke-width="2" stroke-linecap="round" stroke-linejoin="round" stroke-miterlimit="10" points="
			2542.495,2042.165 2826.897,1499.626 1916.515,1499.626 		"/>
		
			<polygon fill="none" stroke="#F4F4FF" stroke-width="2" stroke-linecap="round" stroke-linejoin="round" stroke-miterlimit="10" points="
			2962.288,1797.585 2826.897,1499.626 2542.495,2042.165 		"/>
		
			<polygon fill="none" stroke="#F4F4FF" stroke-width="2" stroke-linecap="round" stroke-linejoin="round" stroke-miterlimit="10" points="
			3392.115,1553.159 2826.897,1499.626 2962.288,1797.585 		"/>
		
			<polygon fill="none" stroke="#F4F4FF" stroke-width="2" stroke-linecap="round" stroke-linejoin="round" stroke-miterlimit="10" points="
			3392.115,576.414 2826.897,1499.626 3392.115,1553.159 		"/>
		
			<polygon fill="none" stroke="#F4F4FF" stroke-width="2" stroke-linecap="round" stroke-linejoin="round" stroke-miterlimit="10" points="
			2826.897,1499.626 2967.914,821.226 2117.076,821.226 		"/>
		
			<polygon fill="none" stroke="#F4F4FF" stroke-width="2" stroke-linecap="round" stroke-linejoin="round" stroke-miterlimit="10" points="
			2399.928,1797.264 2669.932,1799.06 2542.495,2042.165 		"/>
		
			<polygon fill="none" stroke="#F4F4FF" stroke-width="2" stroke-linecap="round" stroke-linejoin="round" stroke-miterlimit="10" points="
			2962.288,1797.585 2669.932,1799.06 2542.495,2042.165 		"/>
		
			<polygon fill="none" stroke="#F4F4FF" stroke-width="2" stroke-linecap="round" stroke-linejoin="round" stroke-miterlimit="10" points="
			3392.115,1553.159 3100.169,1053.271 3392.115,576.414 		"/>
	</g>
	<g>
		
			<polygon fill="none" stroke="#F4F4FF" stroke-width="2" stroke-linecap="round" stroke-linejoin="round" stroke-miterlimit="10" points="
			1445.568,430.49 1515.072,1268.392 2117.076,817.527 		"/>
		
			<polygon fill="none" stroke="#F4F4FF" stroke-width="2" stroke-linecap="round" stroke-linejoin="round" stroke-miterlimit="10" points="
			2117.076,45.542 2117.076,817.527 1445.568,430.49 		"/>
		
			<polygon fill="none" stroke="#F4F4FF" stroke-width="2" stroke-linecap="round" stroke-linejoin="round" stroke-miterlimit="10" points="
			1108.636,430.49 1515.072,1268.392 1445.568,430.49 		"/>
		
			<polygon fill="none" stroke="#F4F4FF" stroke-width="2" stroke-linecap="round" stroke-linejoin="round" stroke-miterlimit="10" points="
			1445.568,46.556 1108.636,430.49 1445.568,430.49 		"/>
		
			<polygon fill="none" stroke="#F4F4FF" stroke-width="2" stroke-linecap="round" stroke-linejoin="round" stroke-miterlimit="10" points="
			2117.076,45.542 1445.568,46.556 1445.568,430.49 		"/>
		<path fill="none" stroke="#F4F4FF" stroke-width="2" stroke-linecap="round" stroke-linejoin="round" stroke-miterlimit="10" d="
			M1445.568,430.49c28.426,2.979,671.509,0,671.509,0l-165.154,291.847L1445.568,430.49z"/>
		
			<polygon fill="none" stroke="#F4F4FF" stroke-width="2" stroke-linecap="round" stroke-linejoin="round" stroke-miterlimit="10" points="
			1810.068,1047.458 1951.922,722.337 1445.568,430.49 		"/>
		
			<polygon fill="none" stroke="#F4F4FF" stroke-width="2" stroke-linecap="round" stroke-linejoin="round" stroke-miterlimit="10" points="
			2117.076,817.527 1951.922,722.337 1810.325,1046.868 		"/>
		
			<polygon fill="none" stroke="#F4F4FF" stroke-width="2" stroke-linecap="round" stroke-linejoin="round" stroke-miterlimit="10" points="
			2117.076,817.527 2117.076,430.49 1951.922,722.337 		"/>
	</g>
	<g>
		
			<polygon fill="none" stroke="#F4F4FF" stroke-width="2" stroke-linecap="round" stroke-linejoin="round" stroke-miterlimit="10" points="
			49.723,1038.053 579.179,1340.447 1108.636,1037.263 1108.636,428.586 579.179,732.101 225.871,734.45 		"/>
		
			<polygon fill="none" stroke="#F4F4FF" stroke-width="2" stroke-linecap="round" stroke-linejoin="round" stroke-miterlimit="10" points="
			579.179,1038.901 579.179,1340.447 318.107,1189.582 		"/>
		
			<polygon fill="none" stroke="#F4F4FF" stroke-width="2" stroke-linecap="round" stroke-linejoin="round" stroke-miterlimit="10" points="
			225.871,734.45 579.179,1038.901 318.107,1189.582 		"/>
		
			<polygon fill="none" stroke="#F4F4FF" stroke-width="2" stroke-linecap="round" stroke-linejoin="round" stroke-miterlimit="10" points="
			1108.636,1037.263 579.179,1038.901 579.179,1340.447 		"/>
		
			<polygon fill="none" stroke="#F4F4FF" stroke-width="2" stroke-linecap="round" stroke-linejoin="round" stroke-miterlimit="10" points="
			1108.636,428.586 579.179,1038.901 579.179,732.101 		"/>
		
			<polygon fill="none" stroke="#F4F4FF" stroke-width="2" stroke-linecap="round" stroke-linejoin="round" stroke-miterlimit="10" points="
			225.871,734.45 318.107,1189.582 49.723,1038.053 		"/>
		
			<line fill="none" stroke="#F4F4FF" stroke-width="2" stroke-linecap="round" stroke-linejoin="round" stroke-miterlimit="10" x1="1108.636" y1="428.586" x2="419.019" y2="517.461"/>
		
			<line fill="none" stroke="#F4F4FF" stroke-width="2" stroke-linecap="round" stroke-linejoin="round" stroke-miterlimit="10" x1="419.019" y1="517.461" x2="225.871" y2="734.45"/>
		
			<line fill="none" stroke="#F4F4FF" stroke-width="2" stroke-linecap="round" stroke-linejoin="round" stroke-miterlimit="10" x1="579.179" y1="732.101" x2="419.019" y2="517.461"/>
	</g>
	
		<line fill="none" stroke="#F4F4FF" stroke-width="2" stroke-linecap="round" stroke-linejoin="round" stroke-miterlimit="10" x1="2399.928" y1="1797.264" x2="1916.515" y2="1499.626"/>
	
		<line fill="none" stroke="#F4F4FF" stroke-width="2" stroke-linecap="round" stroke-linejoin="round" stroke-miterlimit="10" x1="2542.495" y1="2042.165" x2="1917.055" y2="2428.385"/>
	
		<line fill="none" stroke="#F4F4FF" stroke-width="2" stroke-linecap="round" stroke-linejoin="round" stroke-miterlimit="10" x1="1916.515" y1="1966.333" x2="2542.495" y2="2042.165"/>
	
		<line fill="none" stroke="#F4F4FF" stroke-width="2" stroke-linecap="round" stroke-linejoin="round" stroke-miterlimit="10" x1="2542.495" y1="2042.165" x2="3333.61" y2="2369.098"/>
	
		<line fill="none" stroke="#F4F4FF" stroke-width="2" stroke-linecap="round" stroke-linejoin="round" stroke-miterlimit="10" x1="3333.61" y1="2369.098" x2="3392.115" y2="1553.159"/>
	
		<line fill="none" stroke="#F4F4FF" stroke-width="2" stroke-linecap="round" stroke-linejoin="round" stroke-miterlimit="10" x1="3333.61" y1="2369.098" x2="1917.055" y2="2428.385"/>
	
		<line fill="none" stroke="#F4F4FF" stroke-width="2" stroke-linecap="round" stroke-linejoin="round" stroke-miterlimit="10" x1="2542.495" y1="2042.165" x2="2325.938" y2="2411.272"/>
	
		<line fill="none" stroke="#F4F4FF" stroke-width="2" stroke-linecap="round" stroke-linejoin="round" stroke-miterlimit="10" x1="2962.288" y1="1797.585" x2="3333.61" y2="2369.098"/>
	
		<line fill="none" stroke="#F4F4FF" stroke-width="2" stroke-linecap="round" stroke-linejoin="round" stroke-miterlimit="10" x1="2967.914" y1="821.226" x2="2117.076" y2="430.49"/>
	
		<line fill="none" stroke="#F4F4FF" stroke-width="2" stroke-linecap="round" stroke-linejoin="round" stroke-miterlimit="10" x1="2117.076" y1="45.542" x2="2967.914" y2="821.226"/>
	
		<line fill="none" stroke="#F4F4FF" stroke-width="2" stroke-linecap="round" stroke-linejoin="round" stroke-miterlimit="10" x1="3392.115" y1="576.414" x2="2117.076" y2="45.542"/>
	
		<line fill="none" stroke="#F4F4FF" stroke-width="2" stroke-linecap="round" stroke-linejoin="round" stroke-miterlimit="10" x1="419.019" y1="517.461" x2="1445.568" y2="46.556"/>
	
		<line fill="none" stroke="#F4F4FF" stroke-width="2" stroke-linecap="round" stroke-linejoin="round" stroke-miterlimit="10" x1="49.723" y1="1038.053" x2="301.297" y2="1499.626"/>
	
		<line fill="none" stroke="#F4F4FF" stroke-width="2" stroke-linecap="round" stroke-linejoin="round" stroke-miterlimit="10" x1="301.297" y1="1499.626" x2="402.525" y2="1989.482"/>
	
		<line fill="none" stroke="#F4F4FF" stroke-width="2" stroke-linecap="round" stroke-linejoin="round" stroke-miterlimit="10" x1="402.525" y1="1989.482" x2="704.657" y2="1732.411"/>
	
		<line fill="none" stroke="#F4F4FF" stroke-width="2" stroke-linecap="round" stroke-linejoin="round" stroke-miterlimit="10" x1="402.525" y1="1989.482" x2="1515.02" y2="2659.78"/>
	
		<line fill="none" stroke="#F4F4FF" stroke-width="2" stroke-linecap="round" stroke-linejoin="round" stroke-miterlimit="10" x1="1917.055" y1="2428.385" x2="1917.055" y2="2583.142"/>
	
		<line fill="none" stroke="#F4F4FF" stroke-width="2" stroke-linecap="round" stroke-linejoin="round" stroke-miterlimit="10" x1="1917.055" y1="2583.142" x2="1515.02" y2="2659.78"/>
	
		<line fill="none" stroke="#F4F4FF" stroke-width="2" stroke-linecap="round" stroke-linejoin="round" stroke-miterlimit="10" x1="1917.055" y1="2583.142" x2="3333.61" y2="2369.098"/>
</g>
</svg>
