<svg xmlns="http://www.w3.org/2000/svg" viewBox="0 0 578.954 578.954" width="512" height="512"><path d="M549.576 59.364c0-9.384-3.264-17.442-9.791-24.174-6.525-6.732-14.482-10.098-23.865-10.098h-55.08c-9.387 0-17.344 3.366-23.869 10.098-6.527 6.732-9.791 14.79-9.791 24.174v46.512c0 9.384 3.264 17.34 9.791 23.868 6.525 6.528 14.482 9.792 23.869 9.792h55.08c9.383 0 17.34-3.264 23.865-9.792 6.527-6.528 9.791-14.484 9.791-23.868V59.364zM153.001 25.092h-19.584v114.444h19.584V25.092zm-33.66 0H99.145v114.444h20.196V25.092zm-34.272 0H65.485v114.444h19.584V25.092zm-34.272 3.06c-5.712 2.448-10.506 6.528-14.382 12.24s-5.814 12.036-5.814 18.972v80.172h20.196V28.152zM561.816 0c4.08 0 7.549 1.326 10.404 3.978 2.854 2.652 4.285 6.018 4.285 10.098V165.24H398.412c-13.055-17.136-29.375-30.702-48.959-40.698s-41.004-14.994-64.26-14.994-44.676 4.998-64.26 14.994-35.904 23.562-48.96 40.698H2.449V14.076c0-4.08 1.428-7.446 4.284-10.098S13.057 0 17.137 0h544.679zM285.193 151.776c-13.872 0-26.826 2.652-38.862 7.956-12.036 5.304-22.644 12.546-31.824 21.726-9.18 9.18-16.422 19.788-21.726 31.824s-7.956 24.99-7.956 38.862 2.652 26.928 7.956 39.168 12.546 22.848 21.726 31.824c9.18 8.975 19.788 16.115 31.824 21.42 12.036 5.303 24.99 7.955 38.862 7.955s26.928-2.652 39.168-7.955c12.24-5.305 22.85-12.445 31.824-21.42 8.975-8.979 16.115-19.584 21.42-31.824 5.303-12.24 7.955-25.296 7.955-39.168s-2.652-26.826-7.955-38.862c-5.305-12.036-12.445-22.644-21.42-31.824-8.977-9.18-19.584-16.422-31.824-21.726-12.24-5.304-25.297-7.956-39.168-7.956zm0 226.441c-17.544 0-33.966-3.268-49.266-9.793-15.3-6.527-28.662-15.504-40.086-26.93-11.424-11.424-20.4-24.783-26.928-40.086-6.528-15.3-9.792-31.722-9.792-49.266s3.264-33.966 9.792-49.266c6.528-15.3 15.504-28.662 26.928-40.086s24.786-20.4 40.086-26.928 31.722-9.792 49.266-9.792c17.543 0 33.965 3.264 49.268 9.792 15.301 6.528 28.66 15.504 40.086 26.928 11.424 11.424 20.398 24.786 26.928 40.086 6.529 15.3 9.793 31.722 9.793 49.266s-3.264 33.966-9.793 49.266c-6.527 15.303-15.504 28.662-26.928 40.086-11.426 11.426-24.785 20.4-40.086 26.93-15.303 6.527-31.725 9.793-49.268 9.793zM428.4 252.144c0-22.848-5.1-44.064-15.299-63.648h163.404v376.381c0 4.08-1.432 7.443-4.285 10.098-2.855 2.652-6.324 3.979-10.404 3.979H17.137c-4.08 0-7.548-1.324-10.404-3.979s-4.284-6.018-4.284-10.098V188.496h154.836c-4.488 9.384-8.058 19.482-10.71 30.294-2.652 10.812-3.978 21.93-3.978 33.354 0 19.584 3.774 38.148 11.322 55.692 7.548 17.545 17.748 32.74 30.6 45.594 12.852 12.852 27.948 23.053 45.288 30.6 17.34 7.549 35.802 11.322 55.386 11.322 19.584 0 38.149-3.773 55.692-11.322 17.545-7.547 32.742-17.748 45.594-30.6 12.852-12.854 23.053-28.049 30.6-45.594 7.548-17.544 11.321-36.108 11.321-55.692z"/></svg>