<?xml version="1.0" encoding="UTF-8" standalone="no"?>
<!-- Created with Inkscape (http://www.inkscape.org/) -->

<svg
   xmlns:dc="http://purl.org/dc/elements/1.1/"
   xmlns:cc="http://creativecommons.org/ns#"
   xmlns:rdf="http://www.w3.org/1999/02/22-rdf-syntax-ns#"
   xmlns:svg="http://www.w3.org/2000/svg"
   xmlns="http://www.w3.org/2000/svg"
   xmlns:sodipodi="http://sodipodi.sourceforge.net/DTD/sodipodi-0.dtd"
   xmlns:inkscape="http://www.inkscape.org/namespaces/inkscape"
   version="1.1"
   id="svg2"
   width="286"
   height="442"
   viewBox="0 0 286 442"
   sodipodi:docname="g12.svg"
   inkscape:version="0.92.0 r15299">
  <metadata
     id="metadata8">
    <rdf:RDF>
      <cc:Work
         rdf:about="">
        <dc:format>image/svg+xml</dc:format>
        <dc:type
           rdf:resource="http://purl.org/dc/dcmitype/StillImage" />
        <dc:title></dc:title>
      </cc:Work>
    </rdf:RDF>
  </metadata>
  <defs
     id="defs6" />
  <sodipodi:namedview
     pagecolor="#ffffff"
     bordercolor="#666666"
     borderopacity="1"
     objecttolerance="10"
     gridtolerance="10"
     guidetolerance="10"
     inkscape:pageopacity="0"
     inkscape:pageshadow="2"
     inkscape:window-width="1366"
     inkscape:window-height="705"
     id="namedview4"
     showgrid="false"
     inkscape:zoom="0.53393665"
     inkscape:cx="143"
     inkscape:cy="221"
     inkscape:window-x="-8"
     inkscape:window-y="-8"
     inkscape:window-maximized="1"
     inkscape:current-layer="svg2" />
  <path
     style="fill:#010101"
     d="M 8.9948269,226.11785 V 17.727216 l 5.7500001,-7.106045 5.75,-7.1060427 128.299903,-0.0033 128.29991,-0.0034 -0.29991,5.75 -0.2999,5.7500017 -125.20206,0.25387 -125.202063,0.25387 -2.57395,3.37462 c -2.54716,3.33951 -2.57107,3.53976 -2.29794,19.24613 l 0.27601,15.87151 132.000003,0.5 132,0.5 0.25258,189.75 0.25259,189.75 H 147.49741 8.9948269 Z m 65.7979601,18.43531 c 0.26901,-6.73116 1.28979,-10.04468 3.09443,-10.04468 0.35612,0 2.6272,3.2625 5.04685,7.25 6.28783,10.36215 6.71053,10.75 11.71575,10.75 2.38976,0 4.34501,-0.41839 4.34501,-0.92975 0,-0.51136 -3.18289,-5.86987 -7.07309,-11.90779 l -7.07309,-10.97805 7.07309,-8.95454 c 3.8902,-4.925 7.07309,-9.24149 7.07309,-9.59221 0,-0.35071 -2.01541,-0.63766 -4.47869,-0.63766 -4.43937,0 -4.54197,0.079 -11.68501,9 -3.96347,4.95 -7.46056,9.00068 -7.7713,9.00152 -0.31075,8.4e-4 -0.565,-3.93666 -0.565,-8.75 v -8.75152 l -4.21107,-0.3056 -4.21107,-0.30559 -0.28893,21.14085 c -0.15891,11.62747 -0.0803,21.34866 0.17479,21.60265 0.25505,0.25399 2.28005,0.32812 4.5,0.16474 l 4.03628,-0.29705 z m 45.202043,-13.60218 v -21.5575 l -4.25,0.3075 -4.25,0.3075 -0.26989,21.25 -0.26989,21.25 h 4.51989 4.51989 z m 33.22639,4.3075 0.27361,-17.25 5.80729,-0.30161 5.80729,-0.30162 -0.30729,-3.69838 -0.30729,-3.69839 h -16 -16 v 3.5 3.5 l 5.75,0.2999 5.75,0.29991 v 16.78343 c 0,9.23088 0.3,17.08343 0.66667,17.45009 0.36666,0.36667 2.38104,0.66667 4.47638,0.66667 h 3.80972 z m 48.77361,13.29206 v -3.95793 l -7.75,-0.29207 -7.75,-0.29206 v -4.5 -4.5 l 7.30768,-0.29497 7.30769,-0.29498 -0.30769,-3.70502 -0.30768,-3.70503 -7.3053,-0.29493 -7.30531,-0.29492 0.30531,-4.20508 0.3053,-4.20507 7.8078,-0.2931 7.80779,-0.29311 -0.30779,-3.70689 -0.3078,-3.7069 h -12 -12 l -0.27188,19.97179 c -0.14953,10.98448 -0.0512,20.54698 0.21862,21.25 0.36056,0.93961 3.67764,1.27821 12.52188,1.27821 h 12.03138 z m 23.20619,-3.29206 0.29381,-7.25 5.03609,-0.61472 c 7.12599,-0.86982 8.74518,-1.52565 11.90211,-4.82078 5.55864,-5.80197 4.13474,-17.10435 -2.60942,-20.71264 -2.53863,-1.35823 -5.70249,-1.7894 -13.32878,-1.81642 l -10,-0.0354 -0.27188,19.97179 c -0.14953,10.98448 -0.0512,20.54698 0.21862,21.25 0.28469,0.74191 2.16356,1.27821 4.47807,1.27821 h 3.98757 l 0.29381,-7.25 z m 0.19934,-17.1356 c -0.29244,-0.76207 -0.39082,-3.34957 -0.21862,-5.75 0.30441,-4.24334 0.41553,-4.37291 4.00612,-4.67137 6.54535,-0.54406 10.12038,5.49356 5.80697,9.80697 -2.34696,2.34696 -8.77175,2.75838 -9.59447,0.6144 z m 19.59447,-95.61975 V 97.497786 l -89.75,0.25534 -89.750003,0.25535 -0.26378,33.492894 c -0.14508,18.42109 -0.0467,34.05859 0.21862,34.75 0.3824,0.99653 19.04112,1.25711 90.013783,1.25711 h 89.53138 z"
     id="path12"
     inkscape:connector-curvature="0"
     inkscape:export-xdpi="96"
     inkscape:export-ydpi="96" />
</svg>
