<?xml version="1.0" encoding="UTF-8" standalone="no"?>
<!-- Created with Inkscape (http://www.inkscape.org/) -->

<svg
   xmlns:dc="http://purl.org/dc/elements/1.1/"
   xmlns:cc="http://creativecommons.org/ns#"
   xmlns:rdf="http://www.w3.org/1999/02/22-rdf-syntax-ns#"
   xmlns:svg="http://www.w3.org/2000/svg"
   xmlns="http://www.w3.org/2000/svg"
   xmlns:sodipodi="http://sodipodi.sourceforge.net/DTD/sodipodi-0.dtd"
   xmlns:inkscape="http://www.inkscape.org/namespaces/inkscape"
   version="1.1"
   id="svg10"
   width="500"
   height="500"
   viewBox="0 0 500 500"
   sodipodi:docname="икон.svg"
   inkscape:version="0.92.0 r15299">
  <metadata
     id="metadata16">
    <rdf:RDF>
      <cc:Work
         rdf:about="">
        <dc:format>image/svg+xml</dc:format>
        <dc:type
           rdf:resource="http://purl.org/dc/dcmitype/StillImage" />
        <dc:title />
      </cc:Work>
    </rdf:RDF>
  </metadata>
  <defs
     id="defs14" />
  <sodipodi:namedview
     pagecolor="#ffffff"
     bordercolor="#666666"
     borderopacity="1"
     objecttolerance="10"
     gridtolerance="10"
     guidetolerance="10"
     inkscape:pageopacity="0"
     inkscape:pageshadow="2"
     inkscape:window-width="1366"
     inkscape:window-height="705"
     id="namedview12"
     showgrid="false"
     inkscape:zoom="1.072"
     inkscape:cx="263.51273"
     inkscape:cy="324.62686"
     inkscape:window-x="-8"
     inkscape:window-y="-8"
     inkscape:window-maximized="1"
     inkscape:current-layer="svg10" />
  <path
     style="fill:#797979"
     d="m 308.01738,316.37836 c -9.49716,-3.10433 -17.16178,-9.41358 -21.12271,-17.3875 -5.17589,-10.41982 -5.22875,-19.58444 -0.1722,-29.85575 9.9208,-20.15201 35.44667,-25.21312 52.34272,-10.37818 6.42491,5.64114 11.6445,16.85253 11.6445,25.01173 0,8.1592 -5.21959,19.37059 -11.6445,25.01173 -8.36615,7.34559 -21.77847,10.62782 -31.04781,7.59797 z m 10.71396,-26.6097 v -4 h 4 c 3.33333,0 4,-0.33333 4,-2 0,-1.66667 -0.66667,-2 -4,-2 h -4 v -4 c 0,-3.33333 -0.33333,-4 -2,-4 -1.66667,0 -2,0.66667 -2,4 v 4 h -4 c -3.33333,0 -4,0.33333 -4,2 0,1.66667 0.66667,2 4,2 h 4 v 4 c 0,3.33333 0.33333,4 2,4 1.66667,0 2,-0.66667 2,-4 z m -171.97409,7.36522 c 0.0142,-0.47587 4.00461,-33.397 8.86747,-73.15807 7.76569,-63.49594 9.07065,-72.46359 10.7241,-73.69595 3.35169,-2.49809 16.64082,-7.68231 26.38252,-10.29208 8.26163,-2.21326 11.65085,-2.55636 26,-2.63207 19.15857,-0.10108 26.28247,1.27522 38.58088,7.45358 l 7.64609,3.84118 3.66814,-2.31559 c 18.29408,-11.54855 52.86587,-12.65221 79.87609,-2.54994 6.2496,2.33745 14.89877,6.62963 15.5459,7.7147 0.84635,1.41911 18.05447,145.23078 17.45023,145.83502 -0.87713,0.87713 -15.05343,-1.44513 -20.85028,-3.41554 l -5.00287,-1.70053 -0.20709,-8.58238 -0.20709,-8.58238 4.25,1.82188 c 2.3375,1.00203 4.25,1.37285 4.25,0.82403 0,-1.76184 -14.02695,-116.29267 -14.2679,-116.49821 -1.37529,-1.17316 -16.54202,-5.70936 -23.42011,-7.00468 -11.70197,-2.20378 -31.30854,-1.5351 -39.36009,1.34237 -7.52065,2.68774 -12.59435,5.37183 -17.94894,9.49535 l -4.49704,3.46313 -4.03783,-3.3087 c -5.62586,-4.60997 -15.12814,-9.1336 -23.16724,-11.02894 -18.1603,-4.28156 -58.2297,2.46599 -58.33292,9.82306 -0.0176,1.25705 -3.12243,27.48554 -6.89955,58.28554 -3.77712,30.8 -6.80019,56.06017 -6.71793,56.1337 0.0823,0.0735 5.25527,-1.86834 11.49558,-4.3153 17.37535,-6.81322 26.94259,-8.70286 44.15397,-8.72089 16.69688,-0.0175 22.7396,1.24763 35.70588,7.47553 l 8.20588,3.94141 5.79412,-2.94047 c 5.58015,-2.83188 11.30578,-5.26722 11.2833,-4.79923 -0.006,0.12389 -0.68096,2.43427 -1.5,5.13418 -0.81905,2.69991 -1.49811,6.74991 -1.50902,9 -0.0186,3.8423 -0.32546,4.27253 -5.04576,7.07532 -2.76425,1.64134 -5.96792,3.98698 -7.11927,5.21254 l -2.09336,2.22828 -4.48145,-3.94474 c -10.70792,-9.42548 -24.75471,-13.56105 -43.13022,-12.69813 -13.33748,0.62633 -23.61175,3.02133 -37.88534,8.83134 -5.34862,2.17713 -12.19976,4.58523 -15.22476,5.35133 -7.47107,1.89209 -17.00581,2.95956 -16.97409,1.90035 z m 109.69021,-28.6668 c -20.56949,-10.23178 -47.60262,-10.12717 -77.06843,0.29823 -4.86877,1.72264 -9.00952,2.97486 -9.20166,2.78271 -0.19215,-0.19215 2.54509,-24.18361 6.08275,-53.31436 3.53767,-29.13075 6.44092,-53.26581 6.45167,-53.63347 0.0305,-1.04349 11.72764,-4.68071 20.37175,-6.3346 9.2528,-1.77036 24.41145,-1.94923 31.84858,-0.37582 7.63011,1.61424 17.42413,6.29132 24.01495,11.46821 l 5.71572,4.48953 5.77824,-4.70644 c 6.53583,-5.32351 13.05496,-8.56811 21.75041,-10.82528 5.04763,-1.31027 13.53386,-2.1231 13.54252,-1.29713 10e-4,0.1375 1.12105,18.25 2.48803,40.25 3.2223,51.8595 3.24537,49.1028 -0.41705,49.83528 -5.86101,1.1722 -12.69582,5.18455 -18.07865,10.61301 -3.77728,3.80929 -7.38658,6.30653 -11.5,7.95674 -3.29722,1.32277 -7.79495,3.36359 -9.99495,4.53516 l -4,2.13013 z"
     id="path20"
     inkscape:connector-curvature="0"
     inkscape:export-xdpi="96"
     inkscape:export-ydpi="96" />
</svg>
