<svg xmlns="http://www.w3.org/2000/svg" width="512" height="512" viewBox="0 0 491.918 491.918"><path d="M49.426 0v491.906h34.483V385.412h326.404v106.506h32.179V0H49.426zm360.887 367.018h-96.546V294.61h-26.434v72.413H276.99V294.61h-26.433v72.413h-9.194V294.61H214.93v72.413h-10.926V294.61h-26.43v72.413H167.23V294.61h-26.433v72.413h-9.2V294.61h-26.433v72.413H83.909V262.042h326.404v104.976zm0-123.358H391.67l5.532-1.259-16.964-74.721-25.771 5.854 15.912 70.125h-15.912v-74.005h-26.433v74.006h-123.45v-74.334h-26.433v74.328H167.81v-74.328h-26.43v74.328h-9.2v-74.328h-26.433v74.328H83.915v-98.071h326.404v98.078h-.006zm0-116.472h-10.911V50.566h-26.444v76.622h-10.345V50.566H336.18v76.622h-9.197V50.566h-26.427v76.622h-131.21l17.07-3.88-16.966-74.724-25.777 5.863 16.518 72.747h-16.518V50.566H117.24v76.622H83.915V18.386h326.404v108.802h-.006z" fill="#FFF"/></svg>