<svg xmlns="http://www.w3.org/2000/svg" width="286" height="442" viewBox="0 0 286 442"><path d="M8.995 226.118V17.728l5.75-7.107 5.75-7.106 128.3-.003 128.3-.004-.3 5.75-.3 5.75-125.202.254-125.202.254-2.574 3.375c-2.547 3.34-2.571 3.54-2.298 19.246l.276 15.871 132 .5 132 .5.252 189.75.253 189.75H8.995zm65.798 18.435c.269-6.731 1.29-10.045 3.094-10.045.356 0 2.627 3.263 5.047 7.25 6.288 10.363 6.71 10.75 11.716 10.75 2.39 0 4.345-.418 4.345-.93 0-.51-3.183-5.87-7.073-11.907l-7.073-10.978 7.073-8.955c3.89-4.925 7.073-9.241 7.073-9.592 0-.35-2.016-.638-4.479-.638-4.44 0-4.542.08-11.685 9-3.963 4.95-7.46 9.001-7.771 9.002-.31 0-.565-3.937-.565-8.75v-8.752l-4.211-.305-4.211-.306-.29 21.141c-.158 11.628-.08 21.349.176 21.603.255.254 2.28.328 4.5.165l4.036-.298zm45.202-13.602v-21.558l-4.25.308-4.25.307-.27 21.25-.27 21.25h9.04zm33.226 4.307l.274-17.25 5.807-.301 5.807-.302-.307-3.698-.307-3.699h-32v7l5.75.3 5.75.3v16.784c0 9.23.3 17.083.667 17.45.366.366 2.38.666 4.476.666h3.81zm48.774 13.293v-3.958l-7.75-.292-7.75-.293v-9l7.308-.294 7.307-.295-.307-3.705-.308-3.706-7.305-.294-7.306-.295.306-4.205.305-4.206 7.808-.293 7.807-.293-.307-3.707-.308-3.707h-24l-.272 19.972c-.15 10.985-.051 20.547.219 21.25.36.94 3.677 1.278 12.521 1.278h12.032zm23.206-3.293l.294-7.25 5.036-.614c7.126-.87 8.745-1.526 11.902-4.821 5.559-5.802 4.135-17.104-2.61-20.713-2.538-1.358-5.702-1.79-13.328-1.816l-10-.035-.272 19.971c-.15 10.985-.051 20.547.219 21.25.284.742 2.163 1.279 4.478 1.279h3.987l.294-7.25zm.2-17.135c-.293-.762-.391-3.35-.22-5.75.305-4.243.416-4.373 4.007-4.671 6.545-.545 10.12 5.493 5.807 9.806-2.347 2.347-8.772 2.759-9.595.615zm19.594-95.62V97.498l-89.75.255-89.75.255-.264 33.493c-.145 18.421-.047 34.059.219 34.75.382.997 19.04 1.257 90.013 1.257h89.532z" fill="#010101"/></svg>