<svg xmlns="http://www.w3.org/2000/svg" width="500" height="500" viewBox="0 0 500 500"><path d="M308.017 316.378c-9.497-3.104-17.161-9.413-21.122-17.387-5.176-10.42-5.23-19.585-.173-29.856 9.921-20.152 35.447-25.213 52.343-10.378 6.425 5.641 11.645 16.852 11.645 25.012 0 8.159-5.22 19.37-11.645 25.011-8.366 7.346-21.778 10.628-31.048 7.598zm10.714-26.61v-4h4c3.334 0 4-.333 4-2 0-1.666-.666-2-4-2h-4v-4c0-3.333-.333-4-2-4-1.666 0-2 .667-2 4v4h-4c-3.333 0-4 .334-4 2 0 1.667.667 2 4 2h4v4c0 3.334.334 4 2 4 1.667 0 2-.666 2-4zm-171.974 7.366c.014-.476 4.005-33.397 8.868-73.158 7.765-63.496 9.07-72.464 10.724-73.696 3.352-2.498 16.64-7.682 26.382-10.292 8.262-2.213 11.651-2.557 26-2.632 19.159-.101 26.283 1.275 38.581 7.453l7.646 3.841 3.668-2.315c18.295-11.549 52.866-12.652 79.877-2.55 6.25 2.337 14.898 6.63 15.545 7.715.847 1.419 18.055 145.23 17.45 145.835-.876.877-15.053-1.445-20.85-3.416l-5.002-1.7-.208-8.583-.207-8.582 4.25 1.822c2.338 1.002 4.25 1.373 4.25.824 0-1.762-14.027-116.293-14.268-116.498-1.375-1.174-16.542-5.71-23.42-7.005-11.702-2.204-31.308-1.535-39.36 1.342-7.52 2.688-12.594 5.372-17.949 9.496l-4.497 3.463-4.038-3.309c-5.625-4.61-15.128-9.134-23.167-11.029-18.16-4.281-58.23 2.466-58.333 9.823-.017 1.257-3.122 27.486-6.9 58.286-3.776 30.8-6.8 56.06-6.717 56.133.082.074 5.255-1.868 11.495-4.315 17.376-6.813 26.943-8.703 44.154-8.72 16.697-.018 22.74 1.247 35.706 7.475l8.206 3.941 5.794-2.94c5.58-2.832 11.306-5.268 11.284-4.8-.006.124-.681 2.435-1.5 5.135-.82 2.7-1.499 6.75-1.51 9-.018 3.842-.325 4.272-5.045 7.075-2.765 1.641-5.968 3.987-7.12 5.212l-2.093 2.229-4.481-3.945c-10.708-9.425-24.755-13.561-43.13-12.698-13.338.626-23.612 3.021-37.886 8.831-5.349 2.177-12.2 4.585-15.225 5.352-7.47 1.892-17.005 2.96-16.974 1.9zm109.69-28.667c-20.569-10.232-47.602-10.127-77.068.298-4.869 1.723-9.01 2.975-9.202 2.783-.192-.192 2.545-24.184 6.083-53.314 3.538-29.131 6.441-53.266 6.452-53.634.03-1.043 11.727-4.68 20.372-6.334 9.252-1.77 24.411-1.95 31.848-.376 7.63 1.614 17.424 6.291 24.015 11.468l5.716 4.49 5.778-4.707c6.536-5.323 13.055-8.568 21.75-10.825 5.048-1.31 13.534-2.123 13.543-1.297.001.137 1.121 18.25 2.488 40.25 3.222 51.86 3.245 49.102-.417 49.835-5.861 1.172-12.696 5.184-18.079 10.613-3.777 3.81-7.386 6.306-11.5 7.957-3.297 1.322-7.795 3.363-9.995 4.535l-4 2.13z" fill="#797979"/></svg>